<?xml version="1.0" standalone="no"?>
<!DOCTYPE svg PUBLIC "-//W3C//DTD SVG 20010904//EN"
 "http://www.w3.org/TR/2001/REC-SVG-20010904/DTD/svg10.dtd">
<svg version="1.0" xmlns="http://www.w3.org/2000/svg"
 width="156.000000pt" height="49.000000pt" viewBox="0 0 156.000000 49.000000"
 preserveAspectRatio="xMidYMid meet">

<g transform="translate(0.000000,49.000000) scale(0.100000,-0.100000)"
fill="#000000" stroke="none">
<path d="M509 463 c-1 -4 -1 -11 0 -15 0 -5 -2 -7 -6 -6 -5 0 -15 -1 -23 -4
-8 -3 -40 -13 -70 -22 -76 -22 -119 -51 -136 -91 -21 -52 -3 -85 48 -85 30 0
59 32 57 65 0 13 -4 9 -10 -12 -14 -50 -79 -59 -79 -12 0 45 31 80 96 111 36
17 67 28 70 26 7 -7 -93 -215 -127 -264 -38 -56 -65 -81 -111 -105 -122 -63
-243 37 -153 127 13 13 20 24 15 24 -20 0 -60 -63 -60 -96 0 -42 25 -69 77
-83 49 -14 50 -14 110 4 98 29 177 128 228 285 26 81 43 110 70 120 14 5 25
14 25 19 0 12 -20 25 -21 14z"/>
<path d="M1150 450 c-122 -8 -178 -36 -193 -97 -6 -27 26 -73 52 -73 22 0 71
37 71 53 0 7 -5 4 -11 -6 -27 -46 -89 -37 -89 12 0 39 45 76 110 90 54 12 130
15 130 6 0 -3 -9 -18 -19 -33 -10 -15 -38 -61 -62 -102 -58 -101 -97 -140
-142 -140 -20 0 -38 4 -41 9 -11 17 6 40 32 44 26 4 26 4 -3 6 -55 2 -77 -49
-31 -70 56 -26 140 19 181 95 11 20 22 36 26 36 3 0 11 -19 18 -42 14 -48 56
-98 81 -98 9 0 25 9 34 19 15 16 21 18 37 8 15 -9 22 -8 36 5 15 16 17 16 29
0 11 -15 16 -15 35 -4 16 11 23 11 29 2 11 -18 41 -8 57 20 15 25 15 25 -2 3
-23 -31 -49 -31 -39 0 3 12 13 34 20 49 18 34 18 48 0 48 -7 0 -16 -12 -19
-27 -7 -34 -43 -93 -56 -93 -12 0 3 56 20 76 9 11 8 14 -3 14 -8 0 -28 -20
-46 -45 -44 -62 -71 -60 -38 3 20 38 53 65 71 59 8 -4 15 -2 15 3 0 13 -50 13
-69 1 -8 -6 -29 -34 -46 -63 -40 -68 -69 -72 -102 -13 -12 22 -24 52 -28 66
-6 25 -4 27 33 34 47 8 97 36 112 65 9 17 7 24 -14 45 -14 14 -33 25 -44 25
-10 0 -22 4 -27 8 -6 4 -53 5 -105 2z m154 -36 c9 -8 16 -18 16 -20 0 -15 -23
-45 -43 -56 -26 -14 -97 -28 -97 -19 0 3 14 30 30 59 33 56 63 68 94 36z"/>
<path d="M633 364 c-10 -15 -28 -37 -40 -50 -11 -13 -17 -24 -12 -26 10 -3
-34 -102 -50 -112 -16 -10 -14 20 4 54 25 48 -9 39 -36 -10 -33 -59 -73 -68
-50 -11 18 42 56 75 81 68 11 -3 18 -1 14 4 -3 5 -18 9 -34 9 -44 0 -106 -86
-85 -119 8 -14 42 -14 50 -1 4 6 13 5 25 -2 15 -10 23 -9 38 5 17 16 20 16 25
2 7 -17 42 -20 52 -5 5 8 11 8 19 0 20 -15 69 -17 74 -1 6 19 62 81 73 81 5 0
2 -14 -6 -31 -34 -64 20 -82 57 -19 l20 35 -21 -25 c-11 -14 -21 -28 -21 -32
0 -5 -6 -8 -14 -8 -18 0 -8 43 19 84 15 22 15 26 2 26 -8 0 -26 -9 -41 -21
-28 -22 -32 -19 -15 13 9 16 8 19 -3 16 -7 -2 -28 -30 -47 -61 -19 -31 -40
-57 -47 -57 -18 0 -18 0 6 59 l19 49 -21 14 c-18 12 -19 17 -9 35 13 26 15 63
1 63 -5 0 -17 -12 -27 -26z m13 -41 c-11 -21 -15 -23 -16 -10 0 24 22 65 27
50 2 -6 -3 -24 -11 -40z m-30 -50 c-6 -15 -4 -15 14 2 11 10 23 15 26 12 17
-17 -36 -117 -62 -117 -12 0 -14 7 -9 33 4 17 10 37 14 42 6 10 7 16 10 35 0
6 4 10 7 10 3 0 3 -8 0 -17z"/>
<path d="M680 315 c0 -8 5 -15 10 -15 6 0 10 7 10 15 0 8 -4 15 -10 15 -5 0
-10 -7 -10 -15z"/>
<path d="M1495 321 c-3 -5 -1 -12 5 -16 12 -7 30 2 30 16 0 12 -27 12 -35 0z"/>
</g>
</svg>
